<svg width="188" height="47" viewBox="0 0 188 47" fill="none" xmlns="http://www.w3.org/2000/svg">
<path d="M48.7109 38.1797H44.1328V43H42.1562V31.625H49.3828V33.2188H44.1328V36.6016H48.7109V38.1797ZM54.9922 36.2812C54.7422 36.2396 54.4844 36.2188 54.2188 36.2188C53.349 36.2188 52.763 36.5521 52.4609 37.2188V43H50.5625V34.5469H52.375L52.4219 35.4922C52.8802 34.7578 53.5156 34.3906 54.3281 34.3906C54.599 34.3906 54.8229 34.4271 55 34.5L54.9922 36.2812ZM55.5547 38.6953C55.5547 37.8672 55.7188 37.1224 56.0469 36.4609C56.375 35.7943 56.8359 35.2839 57.4297 34.9297C58.0234 34.5703 58.7057 34.3906 59.4766 34.3906C60.6172 34.3906 61.5417 34.7578 62.25 35.4922C62.9635 36.2266 63.349 37.2005 63.4062 38.4141L63.4141 38.8594C63.4141 39.6927 63.2526 40.4375 62.9297 41.0938C62.612 41.75 62.1536 42.2578 61.5547 42.6172C60.9609 42.9766 60.2734 43.1562 59.4922 43.1562C58.2995 43.1562 57.3438 42.7604 56.625 41.9688C55.9115 41.1719 55.5547 40.112 55.5547 38.7891V38.6953ZM57.4531 38.8594C57.4531 39.7292 57.6328 40.4115 57.9922 40.9062C58.3516 41.3958 58.8516 41.6406 59.4922 41.6406C60.1328 41.6406 60.6302 41.3906 60.9844 40.8906C61.3438 40.3906 61.5234 39.6589 61.5234 38.6953C61.5234 37.8411 61.3385 37.1641 60.9688 36.6641C60.6042 36.1641 60.1068 35.9141 59.4766 35.9141C58.8568 35.9141 58.3646 36.1615 58 36.6562C57.6354 37.1458 57.4531 37.8802 57.4531 38.8594ZM66.7812 34.5469L66.8359 35.5234C67.4609 34.7682 68.2812 34.3906 69.2969 34.3906C71.0573 34.3906 71.9531 35.3984 71.9844 37.4141V43H70.0859V37.5234C70.0859 36.987 69.9688 36.5911 69.7344 36.3359C69.5052 36.0755 69.1276 35.9453 68.6016 35.9453C67.8359 35.9453 67.2656 36.2917 66.8906 36.9844V43H64.9922V34.5469H66.7812ZM76.3047 32.4922V34.5469H77.7969V35.9531H76.3047V40.6719C76.3047 40.9948 76.3672 41.2292 76.4922 41.375C76.6224 41.5156 76.8516 41.5859 77.1797 41.5859C77.3984 41.5859 77.6198 41.5599 77.8438 41.5078V42.9766C77.4115 43.0964 76.9948 43.1562 76.5938 43.1562C75.1354 43.1562 74.4062 42.3516 74.4062 40.7422V35.9531H73.0156V34.5469H74.4062V32.4922H76.3047ZM82.9375 38.9297H78.8359V37.3984H82.9375V38.9297ZM88.2266 43.1562C87.0234 43.1562 86.0469 42.7786 85.2969 42.0234C84.5521 41.263 84.1797 40.2526 84.1797 38.9922V38.7578C84.1797 37.9141 84.3411 37.1615 84.6641 36.5C84.9922 35.8333 85.4505 35.3151 86.0391 34.9453C86.6276 34.5755 87.2839 34.3906 88.0078 34.3906C89.1589 34.3906 90.0469 34.7578 90.6719 35.4922C91.3021 36.2266 91.6172 37.2656 91.6172 38.6094V39.375H86.0938C86.151 40.0729 86.3828 40.625 86.7891 41.0312C87.2005 41.4375 87.7161 41.6406 88.3359 41.6406C89.2057 41.6406 89.9141 41.2891 90.4609 40.5859L91.4844 41.5625C91.1458 42.0677 90.6927 42.4609 90.125 42.7422C89.5625 43.0182 88.9297 43.1562 88.2266 43.1562ZM88 35.9141C87.4792 35.9141 87.0573 36.0964 86.7344 36.4609C86.4167 36.8255 86.2135 37.3333 86.125 37.9844H89.7422V37.8438C89.7005 37.2083 89.5312 36.7292 89.2344 36.4062C88.9375 36.0781 88.526 35.9141 88 35.9141ZM94.8594 34.5469L94.9141 35.5234C95.5391 34.7682 96.3594 34.3906 97.375 34.3906C99.1354 34.3906 100.031 35.3984 100.062 37.4141V43H98.1641V37.5234C98.1641 36.987 98.0469 36.5911 97.8125 36.3359C97.5833 36.0755 97.2057 35.9453 96.6797 35.9453C95.9141 35.9453 95.3438 36.2917 94.9688 36.9844V43H93.0703V34.5469H94.8594ZM101.648 38.7109C101.648 37.4089 101.951 36.3646 102.555 35.5781C103.159 34.7865 103.969 34.3906 104.984 34.3906C105.88 34.3906 106.604 34.7031 107.156 35.3281V31H109.055V43H107.336L107.242 42.125C106.674 42.8125 105.917 43.1562 104.969 43.1562C103.979 43.1562 103.177 42.7578 102.562 41.9609C101.953 41.1641 101.648 40.0807 101.648 38.7109ZM103.547 38.875C103.547 39.7344 103.711 40.4062 104.039 40.8906C104.372 41.3698 104.844 41.6094 105.453 41.6094C106.229 41.6094 106.797 41.263 107.156 40.5703V36.9609C106.807 36.2839 106.245 35.9453 105.469 35.9453C104.854 35.9453 104.38 36.1901 104.047 36.6797C103.714 37.1641 103.547 37.8958 103.547 38.875Z" fill="#EBA417"/>
<path d="M115.203 43V31.625H118.562C119.568 31.625 120.458 31.849 121.234 32.2969C122.016 32.7448 122.62 33.3802 123.047 34.2031C123.474 35.026 123.688 35.9688 123.688 37.0312V37.6016C123.688 38.6797 123.471 39.6276 123.039 40.4453C122.612 41.263 122 41.8932 121.203 42.3359C120.411 42.7786 119.503 43 118.477 43H115.203ZM117.18 33.2188V41.4219H118.469C119.505 41.4219 120.299 41.099 120.852 40.4531C121.409 39.8021 121.693 38.8698 121.703 37.6562V37.0234C121.703 35.7891 121.435 34.8464 120.898 34.1953C120.362 33.5443 119.583 33.2188 118.562 33.2188H117.18ZM129.195 43.1562C127.992 43.1562 127.016 42.7786 126.266 42.0234C125.521 41.263 125.148 40.2526 125.148 38.9922V38.7578C125.148 37.9141 125.31 37.1615 125.633 36.5C125.961 35.8333 126.419 35.3151 127.008 34.9453C127.596 34.5755 128.253 34.3906 128.977 34.3906C130.128 34.3906 131.016 34.7578 131.641 35.4922C132.271 36.2266 132.586 37.2656 132.586 38.6094V39.375H127.062C127.12 40.0729 127.352 40.625 127.758 41.0312C128.169 41.4375 128.685 41.6406 129.305 41.6406C130.174 41.6406 130.883 41.2891 131.43 40.5859L132.453 41.5625C132.115 42.0677 131.661 42.4609 131.094 42.7422C130.531 43.0182 129.898 43.1562 129.195 43.1562ZM128.969 35.9141C128.448 35.9141 128.026 36.0964 127.703 36.4609C127.385 36.8255 127.182 37.3333 127.094 37.9844H130.711V37.8438C130.669 37.2083 130.5 36.7292 130.203 36.4062C129.906 36.0781 129.495 35.9141 128.969 35.9141ZM136.938 40.5938L138.727 34.5469H140.688L137.758 43H136.109L133.156 34.5469H135.125L136.938 40.5938ZM145.492 43.1562C144.289 43.1562 143.312 42.7786 142.562 42.0234C141.818 41.263 141.445 40.2526 141.445 38.9922V38.7578C141.445 37.9141 141.607 37.1615 141.93 36.5C142.258 35.8333 142.716 35.3151 143.305 34.9453C143.893 34.5755 144.549 34.3906 145.273 34.3906C146.424 34.3906 147.312 34.7578 147.938 35.4922C148.568 36.2266 148.883 37.2656 148.883 38.6094V39.375H143.359C143.417 40.0729 143.648 40.625 144.055 41.0312C144.466 41.4375 144.982 41.6406 145.602 41.6406C146.471 41.6406 147.18 41.2891 147.727 40.5859L148.75 41.5625C148.411 42.0677 147.958 42.4609 147.391 42.7422C146.828 43.0182 146.195 43.1562 145.492 43.1562ZM145.266 35.9141C144.745 35.9141 144.323 36.0964 144 36.4609C143.682 36.8255 143.479 37.3333 143.391 37.9844H147.008V37.8438C146.966 37.2083 146.797 36.7292 146.5 36.4062C146.203 36.0781 145.792 35.9141 145.266 35.9141ZM152.383 43H150.484V31H152.383V43ZM154.102 38.6953C154.102 37.8672 154.266 37.1224 154.594 36.4609C154.922 35.7943 155.383 35.2839 155.977 34.9297C156.57 34.5703 157.253 34.3906 158.023 34.3906C159.164 34.3906 160.089 34.7578 160.797 35.4922C161.51 36.2266 161.896 37.2005 161.953 38.4141L161.961 38.8594C161.961 39.6927 161.799 40.4375 161.477 41.0938C161.159 41.75 160.701 42.2578 160.102 42.6172C159.508 42.9766 158.82 43.1562 158.039 43.1562C156.846 43.1562 155.891 42.7604 155.172 41.9688C154.458 41.1719 154.102 40.112 154.102 38.7891V38.6953ZM156 38.8594C156 39.7292 156.18 40.4115 156.539 40.9062C156.898 41.3958 157.398 41.6406 158.039 41.6406C158.68 41.6406 159.177 41.3906 159.531 40.8906C159.891 40.3906 160.07 39.6589 160.07 38.6953C160.07 37.8411 159.885 37.1641 159.516 36.6641C159.151 36.1641 158.654 35.9141 158.023 35.9141C157.404 35.9141 156.911 36.1615 156.547 36.6562C156.182 37.1458 156 37.8802 156 38.8594ZM170.969 38.8594C170.969 40.1667 170.672 41.2109 170.078 41.9922C169.484 42.7682 168.688 43.1562 167.688 43.1562C166.76 43.1562 166.018 42.8516 165.461 42.2422V46.25H163.562V34.5469H165.312L165.391 35.4062C165.948 34.7292 166.706 34.3906 167.664 34.3906C168.695 34.3906 169.503 34.776 170.086 35.5469C170.674 36.3125 170.969 37.3776 170.969 38.7422V38.8594ZM169.078 38.6953C169.078 37.8516 168.909 37.1823 168.57 36.6875C168.237 36.1927 167.758 35.9453 167.133 35.9453C166.357 35.9453 165.799 36.2656 165.461 36.9062V40.6562C165.805 41.3125 166.367 41.6406 167.148 41.6406C167.753 41.6406 168.224 41.3984 168.562 40.9141C168.906 40.4245 169.078 39.6849 169.078 38.6953ZM176.305 43.1562C175.102 43.1562 174.125 42.7786 173.375 42.0234C172.63 41.263 172.258 40.2526 172.258 38.9922V38.7578C172.258 37.9141 172.419 37.1615 172.742 36.5C173.07 35.8333 173.529 35.3151 174.117 34.9453C174.706 34.5755 175.362 34.3906 176.086 34.3906C177.237 34.3906 178.125 34.7578 178.75 35.4922C179.38 36.2266 179.695 37.2656 179.695 38.6094V39.375H174.172C174.229 40.0729 174.461 40.625 174.867 41.0312C175.279 41.4375 175.794 41.6406 176.414 41.6406C177.284 41.6406 177.992 41.2891 178.539 40.5859L179.562 41.5625C179.224 42.0677 178.771 42.4609 178.203 42.7422C177.641 43.0182 177.008 43.1562 176.305 43.1562ZM176.078 35.9141C175.557 35.9141 175.135 36.0964 174.812 36.4609C174.495 36.8255 174.292 37.3333 174.203 37.9844H177.82V37.8438C177.779 37.2083 177.609 36.7292 177.312 36.4062C177.016 36.0781 176.604 35.9141 176.078 35.9141ZM185.602 36.2812C185.352 36.2396 185.094 36.2188 184.828 36.2188C183.958 36.2188 183.372 36.5521 183.07 37.2188V43H181.172V34.5469H182.984L183.031 35.4922C183.49 34.7578 184.125 34.3906 184.938 34.3906C185.208 34.3906 185.432 34.4271 185.609 34.5L185.602 36.2812Z" fill="#F6F6F6"/>
<path d="M51.707 17.3828H44.6992V22.6328H52.8906V25H41.7344V7.9375H52.8086V10.3281H44.6992V15.0391H51.707V17.3828ZM54.2617 18.5664C54.2617 16.6133 54.7148 15.0469 55.6211 13.8672C56.5273 12.6797 57.7422 12.0859 59.2656 12.0859C60.6094 12.0859 61.6953 12.5547 62.5234 13.4922V7H65.3711V25H62.793L62.6523 23.6875C61.8008 24.7188 60.6641 25.2344 59.2422 25.2344C57.7578 25.2344 56.5547 24.6367 55.6328 23.4414C54.7188 22.2461 54.2617 20.6211 54.2617 18.5664ZM57.1094 18.8125C57.1094 20.1016 57.3555 21.1094 57.8477 21.8359C58.3477 22.5547 59.0547 22.9141 59.9688 22.9141C61.1328 22.9141 61.9844 22.3945 62.5234 21.3555V15.9414C62 14.9258 61.1562 14.418 59.9922 14.418C59.0703 14.418 58.3594 14.7852 57.8594 15.5195C57.3594 16.2461 57.1094 17.3438 57.1094 18.8125ZM76.0234 23.7578C75.1875 24.7422 74 25.2344 72.4609 25.2344C71.0859 25.2344 70.043 24.832 69.332 24.0273C68.6289 23.2227 68.2773 22.0586 68.2773 20.5352V12.3203H71.125V20.5C71.125 22.1094 71.793 22.9141 73.1289 22.9141C74.5117 22.9141 75.4453 22.418 75.9297 21.4258V12.3203H78.7773V25H76.0938L76.0234 23.7578ZM89.2539 25C89.1289 24.7578 89.0195 24.3633 88.9258 23.8164C88.0195 24.7617 86.9102 25.2344 85.5977 25.2344C84.3242 25.2344 83.2852 24.8711 82.4805 24.1445C81.6758 23.418 81.2734 22.5195 81.2734 21.4492C81.2734 20.0977 81.7734 19.0625 82.7734 18.3438C83.7812 17.6172 85.2188 17.2539 87.0859 17.2539H88.832V16.4219C88.832 15.7656 88.6484 15.2422 88.2812 14.8516C87.9141 14.4531 87.3555 14.2539 86.6055 14.2539C85.957 14.2539 85.4258 14.418 85.0117 14.7461C84.5977 15.0664 84.3906 15.4766 84.3906 15.9766H81.543C81.543 15.2812 81.7734 14.6328 82.2344 14.0312C82.6953 13.4219 83.3203 12.9453 84.1094 12.6016C84.9062 12.2578 85.793 12.0859 86.7695 12.0859C88.2539 12.0859 89.4375 12.4609 90.3203 13.2109C91.2031 13.9531 91.6562 15 91.6797 16.3516V22.0703C91.6797 23.2109 91.8398 24.1211 92.1602 24.8008V25H89.2539ZM86.125 22.9492C86.6875 22.9492 87.2148 22.8125 87.707 22.5391C88.207 22.2656 88.582 21.8984 88.832 21.4375V19.0469H87.2969C86.2422 19.0469 85.4492 19.2305 84.918 19.5977C84.3867 19.9648 84.1211 20.4844 84.1211 21.1562C84.1211 21.7031 84.3008 22.1406 84.6602 22.4688C85.0273 22.7891 85.5156 22.9492 86.125 22.9492ZM101.301 14.9219C100.926 14.8594 100.539 14.8281 100.141 14.8281C98.8359 14.8281 97.957 15.3281 97.5039 16.3281V25H94.6562V12.3203H97.375L97.4453 13.7383C98.1328 12.6367 99.0859 12.0859 100.305 12.0859C100.711 12.0859 101.047 12.1406 101.312 12.25L101.301 14.9219ZM102.332 18.5664C102.332 16.6133 102.785 15.0469 103.691 13.8672C104.598 12.6797 105.812 12.0859 107.336 12.0859C108.68 12.0859 109.766 12.5547 110.594 13.4922V7H113.441V25H110.863L110.723 23.6875C109.871 24.7188 108.734 25.2344 107.312 25.2344C105.828 25.2344 104.625 24.6367 103.703 23.4414C102.789 22.2461 102.332 20.6211 102.332 18.5664ZM105.18 18.8125C105.18 20.1016 105.426 21.1094 105.918 21.8359C106.418 22.5547 107.125 22.9141 108.039 22.9141C109.203 22.9141 110.055 22.3945 110.594 21.3555V15.9414C110.07 14.9258 109.227 14.418 108.062 14.418C107.141 14.418 106.43 14.7852 105.93 15.5195C105.43 16.2461 105.18 17.3438 105.18 18.8125ZM115.879 18.543C115.879 17.3008 116.125 16.1836 116.617 15.1914C117.109 14.1914 117.801 13.4258 118.691 12.8945C119.582 12.3555 120.605 12.0859 121.762 12.0859C123.473 12.0859 124.859 12.6367 125.922 13.7383C126.992 14.8398 127.57 16.3008 127.656 18.1211L127.668 18.7891C127.668 20.0391 127.426 21.1562 126.941 22.1406C126.465 23.125 125.777 23.8867 124.879 24.4258C123.988 24.9648 122.957 25.2344 121.785 25.2344C119.996 25.2344 118.562 24.6406 117.484 23.4531C116.414 22.2578 115.879 20.668 115.879 18.6836V18.543ZM118.727 18.7891C118.727 20.0938 118.996 21.1172 119.535 21.8594C120.074 22.5938 120.824 22.9609 121.785 22.9609C122.746 22.9609 123.492 22.5859 124.023 21.8359C124.562 21.0859 124.832 19.9883 124.832 18.543C124.832 17.2617 124.555 16.2461 124 15.4961C123.453 14.7461 122.707 14.3711 121.762 14.3711C120.832 14.3711 120.094 14.7422 119.547 15.4844C119 16.2188 118.727 17.3203 118.727 18.7891Z" fill="#F6F6F6"/>
<path d="M139.293 22.6328H147.039V25H136.328V7.9375H139.293V22.6328ZM152.066 25H149.219V12.3203H152.066V25ZM149.043 9.02734C149.043 8.58984 149.18 8.22656 149.453 7.9375C149.734 7.64844 150.133 7.50391 150.648 7.50391C151.164 7.50391 151.562 7.64844 151.844 7.9375C152.125 8.22656 152.266 8.58984 152.266 9.02734C152.266 9.45703 152.125 9.81641 151.844 10.1055C151.562 10.3867 151.164 10.5273 150.648 10.5273C150.133 10.5273 149.734 10.3867 149.453 10.1055C149.18 9.81641 149.043 9.45703 149.043 9.02734ZM157.855 12.3203L157.938 13.6445C158.828 12.6055 160.047 12.0859 161.594 12.0859C163.289 12.0859 164.449 12.7344 165.074 14.0312C165.996 12.7344 167.293 12.0859 168.965 12.0859C170.363 12.0859 171.402 12.4727 172.082 13.2461C172.77 14.0195 173.121 15.1602 173.137 16.668V25H170.289V16.75C170.289 15.9453 170.113 15.3555 169.762 14.9805C169.41 14.6055 168.828 14.418 168.016 14.418C167.367 14.418 166.836 14.5938 166.422 14.9453C166.016 15.2891 165.73 15.7422 165.566 16.3047L165.578 25H162.73V16.6562C162.691 15.1641 161.93 14.418 160.445 14.418C159.305 14.418 158.496 14.8828 158.02 15.8125V25H155.172V12.3203H157.855ZM183.637 25C183.512 24.7578 183.402 24.3633 183.309 23.8164C182.402 24.7617 181.293 25.2344 179.98 25.2344C178.707 25.2344 177.668 24.8711 176.863 24.1445C176.059 23.418 175.656 22.5195 175.656 21.4492C175.656 20.0977 176.156 19.0625 177.156 18.3438C178.164 17.6172 179.602 17.2539 181.469 17.2539H183.215V16.4219C183.215 15.7656 183.031 15.2422 182.664 14.8516C182.297 14.4531 181.738 14.2539 180.988 14.2539C180.34 14.2539 179.809 14.418 179.395 14.7461C178.98 15.0664 178.773 15.4766 178.773 15.9766H175.926C175.926 15.2812 176.156 14.6328 176.617 14.0312C177.078 13.4219 177.703 12.9453 178.492 12.6016C179.289 12.2578 180.176 12.0859 181.152 12.0859C182.637 12.0859 183.82 12.4609 184.703 13.2109C185.586 13.9531 186.039 15 186.062 16.3516V22.0703C186.062 23.2109 186.223 24.1211 186.543 24.8008V25H183.637ZM180.508 22.9492C181.07 22.9492 181.598 22.8125 182.09 22.5391C182.59 22.2656 182.965 21.8984 183.215 21.4375V19.0469H181.68C180.625 19.0469 179.832 19.2305 179.301 19.5977C178.77 19.9648 178.504 20.4844 178.504 21.1562C178.504 21.7031 178.684 22.1406 179.043 22.4688C179.41 22.7891 179.898 22.9492 180.508 22.9492Z" fill="#EBA417"/>
<path d="M6.66665 10.6666C8.08113 10.6666 9.43769 11.2285 10.4379 12.2287C11.4381 13.2289 12 14.5855 12 16C12 17.4145 11.4381 18.771 10.4379 19.7712C9.43769 20.7714 8.08113 21.3333 6.66665 21.3333C5.25216 21.3333 3.8956 20.7714 2.89541 19.7712C1.89522 18.771 1.33331 17.4145 1.33331 16C1.33331 14.5855 1.89522 13.2289 2.89541 12.2287C3.8956 11.2285 5.25216 10.6666 6.66665 10.6666ZM16 1.33331C17.4145 1.33331 18.771 1.89522 19.7712 2.89541C20.7714 3.8956 21.3333 5.25216 21.3333 6.66665C21.3333 8.08113 20.7714 9.43769 19.7712 10.4379C18.771 11.4381 17.4145 12 16 12C14.5855 12 13.2289 11.4381 12.2287 10.4379C11.2285 9.43769 10.6666 8.08113 10.6666 6.66665C10.6666 5.25216 11.2285 3.8956 12.2287 2.89541C13.2289 1.89522 14.5855 1.33331 16 1.33331ZM16 20C17.4145 20 18.771 20.5619 19.7712 21.5621C20.7714 22.5623 21.3333 23.9188 21.3333 25.3333C21.3333 26.7478 20.7714 28.1044 19.7712 29.1045C18.771 30.1047 17.4145 30.6666 16 30.6666C14.5855 30.6666 13.2289 30.1047 12.2287 29.1045C11.2285 28.1044 10.6666 26.7478 10.6666 25.3333C10.6666 23.9188 11.2285 22.5623 12.2287 21.5621C13.2289 20.5619 14.5855 20 16 20ZM25.3333 10.6666C26.7478 10.6666 28.1044 11.2285 29.1045 12.2287C30.1047 13.2289 30.6666 14.5855 30.6666 16C30.6666 17.4145 30.1047 18.771 29.1045 19.7712C28.1044 20.7714 26.7478 21.3333 25.3333 21.3333C23.9188 21.3333 22.5623 20.7714 21.5621 19.7712C20.5619 18.771 20 17.4145 20 16C20 14.5855 20.5619 13.2289 21.5621 12.2287C22.5623 11.2285 23.9188 10.6666 25.3333 10.6666Z" fill="#F6F6F6"/>
</svg>
